<svg t="1574925180184" class="icon" viewBox="0 0 1024 1024" version="1.1" xmlns="http://www.w3.org/2000/svg" p-id="1251" xmlns:xlink="http://www.w3.org/1999/xlink" width="128" height="128"><defs><style type="text/css"></style></defs><path d="M512.004605 941.79372c-213.295897 0-386.809743-173.530219-386.809743-386.809743 0-143.214772 78.666664-274.021957 205.252711-341.496721 10.536984-5.564739 23.50432-1.614777 29.084409 8.857738 5.628184 10.472516 1.599428 23.50432-8.857738 29.084409-112.563682 59.959603-182.500521 176.280866-182.500521 303.554574 0 189.567473 154.247037 343.830883 343.830883 343.830883 189.599196 0 343.830883-154.263409 343.830883-343.830883 0-126.889969-69.584821-243.066945-181.605128-303.154461-10.457166-5.564739-14.437827-18.59552-8.809643-29.068036 5.580089-10.472516 18.675338-14.374382 29.084409-8.794293 125.994576 67.554582 204.309222 198.217481 204.309222 341.016791C898.814348 768.263501 725.315852 941.79372 512.004605 941.79372L512.004605 941.79372zM512.004605 576.50513c-11.864212 0-21.441335-9.641591-21.441335-21.521153L490.56327 103.737666c0-11.879562 9.577123-21.521153 21.441335-21.521153 11.879562 0 21.537526 9.641591 21.537526 21.521153l0 451.246311C533.54213 566.863539 523.884167 576.50513 512.004605 576.50513L512.004605 576.50513z" p-id="1252"></path></svg>