<svg t="1574925819583" class="icon" viewBox="0 0 1024 1024" version="1.1" xmlns="http://www.w3.org/2000/svg" p-id="1890" xmlns:xlink="http://www.w3.org/1999/xlink" width="128" height="128"><defs><style type="text/css"></style></defs><path d="M834.441225 624.48898c-11.512195 3.053546-23.344684-3.597945-26.494421-15.077394-24.639167-89.522919-46.336328-160.9149-62.869886-206.388581-58.137095-160.386874-132.421962-235.104599-233.649458-235.104599-109.334127 0-185.809893 76.364225-240.71641 240.269225-36.599569 109.141746-87.764879 321.366242-88.26016 323.509045-2.350534 9.849322-11.208273 16.452717-20.897959 16.452717-1.6465 0-3.357468-0.176009-5.036713-0.559748-11.592013-2.814092-18.723434-14.374382-15.909341-25.934672 2.094708-8.762571 52.125171-216.157062 89.315188-327.138712 38.741349-115.681696 110.053512-269.577738 281.505395-269.577738 120.206756 0 209.857589 86.165452 274.14987 263.453251 17.092283 47.199998 38.581714 117.728308 63.924915 209.633484C852.60491 609.475032 845.889975 621.291149 834.441225 624.48898L834.441225 624.48898zM920.271032 747.749282 103.753527 747.749282c-11.879562 0-21.537526-9.641591-21.537526-21.521153s9.657964-21.457708 21.537526-21.457708l816.518528 0c11.879562 0 21.521153 9.577123 21.521153 21.457708S932.151617 747.749282 920.271032 747.749282L920.271032 747.749282zM641.164267 866.612437c-26.989701 46.369074-76.731592 75.16491-129.831974 75.16491-53.084009 0-102.8259-28.79686-129.815601-75.16491-5.995551-10.249435-2.51017-23.376407 7.770987-29.371958 10.233062-5.980201 23.424502-2.494821 29.420053 7.80271 19.650549 33.657564 54.235229 53.755298 92.625584 53.755298 38.405705 0 72.990385-20.098757 92.640933-53.755298 5.963829-10.233062 19.138896-13.751189 29.420053-7.80271C643.67546 843.23603 647.160841 856.364025 641.164267 866.612437L641.164267 866.612437zM511.332293 168.174234c-11.864212 0-21.521153-9.641591-21.521153-21.457708l0-42.97886c0-11.864212 9.657964-21.521153 21.521153-21.521153 11.879562 0 21.48943 9.657964 21.48943 21.521153l0 42.97886C532.821723 158.532643 523.212878 168.174234 511.332293 168.174234L511.332293 168.174234z" p-id="1891"></path></svg>