<svg t="1574925792518" class="icon" viewBox="0 0 1024 1024" version="1.1" xmlns="http://www.w3.org/2000/svg" p-id="1528" xmlns:xlink="http://www.w3.org/1999/xlink" width="128" height="128"><defs><style type="text/css"></style></defs><path d="M877.373013 952.362426c-11.879562 0-21.537526-9.609869-21.537526-21.48943 0-91.825358-35.704177-178.166819-100.68412-243.09969-8.394181-8.394181-8.394181-22.032806-0.079818-30.426987 8.473999-8.394181 22.080901-8.394181 30.426987 0C858.569762 730.416522 898.814348 827.550793 898.814348 930.872996 898.814348 942.752558 889.252575 952.362426 877.373013 952.362426L877.373013 952.362426zM511.971859 587.042113c-91.873454 0-178.166819 35.767622-243.09969 100.732216-64.979944 64.931848-100.69947 151.273309-100.69947 243.09969 0 11.879562-9.561773 21.48943-21.441335 21.48943s-21.537526-9.609869-21.537526-21.48943c0-103.322204 40.212864-200.456475 113.331161-273.478582 72.990385-73.03848 170.108283-113.331161 273.446859-113.331161 11.879562 0 21.48943 9.609869 21.48943 21.48943S523.852444 587.042113 511.971859 587.042113L511.971859 587.042113zM512.004605 587.377758c-142.239562 0-257.873162-115.665323-257.873162-257.856789 0-142.159744 115.6336-257.873162 257.873162-257.873162 142.207839 0 257.873162 115.713418 257.873162 257.873162C769.877767 471.712435 654.211421 587.377758 512.004605 587.377758L512.004605 587.377758zM512.004605 114.626667c-118.479415 0-214.894302 96.414887-214.894302 214.894302 0 118.52751 96.414887 214.877929 214.894302 214.877929 118.447692 0 214.894302-96.350418 214.894302-214.877929C726.898907 211.041554 630.452297 114.626667 512.004605 114.626667L512.004605 114.626667z" p-id="1529"></path></svg>