<svg t="1574925833312" class="icon" viewBox="0 0 1024 1024" version="1.1" xmlns="http://www.w3.org/2000/svg" p-id="2023" xmlns:xlink="http://www.w3.org/1999/xlink" width="128" height="128"><defs><style type="text/css"></style></defs><path d="M748.420059 898.798487l-515.746324 0c-47.487547 0-85.989443-38.518269-85.989443-85.941348l0-601.704045c0-47.424102 38.501896-85.957721 85.989443-85.957721l386.809743 0c11.816117 0 21.441335 9.657964 21.441335 21.457708 0 11.879562-9.625218 21.521153-21.441335 21.521153l-386.809743 0c-23.712051 0-43.043329 19.266809-43.043329 42.97886l0 601.704045c0 23.712051 19.331277 42.97886 43.043329 42.97886l515.746324 0c23.647583 0 42.97886-19.266809 42.97886-42.97886l0-343.830883c0-11.879562 9.561773-21.537526 21.441335-21.537526s21.537526 9.657964 21.537526 21.537526l0 343.830883C834.37778 860.281241 795.827789 898.798487 748.420059 898.798487L748.420059 898.798487zM871.040794 161.890111 333.773318 699.110515c-4.173043 4.204765-9.689686 6.332219-15.205307 6.332219-5.483898 0-11.000542-2.12643-15.158235-6.332219-8.394181-8.346085-8.394181-22.032806 0-30.379914l537.204032-537.235754c8.394181-8.394181 22.049179-8.394181 30.426987 0C879.434975 139.889027 879.434975 153.49593 871.040794 161.890111L871.040794 161.890111z" p-id="2024"></path></svg>