<?xml version="1.0" standalone="no"?><!DOCTYPE svg PUBLIC "-//W3C//DTD SVG 1.1//EN" "http://www.w3.org/Graphics/SVG/1.1/DTD/svg11.dtd"><svg t="1589254757745" class="icon" viewBox="0 0 1024 1024" version="1.1" xmlns="http://www.w3.org/2000/svg" p-id="2133" width="128" height="128" xmlns:xlink="http://www.w3.org/1999/xlink"><defs><style type="text/css"></style></defs><path d="M512 956.285782c-59.96779 0-118.155027-11.750625-172.942841-34.923394-52.908-22.37766-100.419084-54.410214-141.215232-95.204315s-72.826656-88.307232-95.204315-141.215232C79.46382 630.154004 67.714218 571.968813 67.714218 512c0-59.96779 11.749602-118.154004 34.923394-172.941817 22.37766-52.908 54.409191-100.419084 95.204315-141.215232s88.306208-72.826656 141.215232-95.204315c54.787814-23.173792 112.974028-34.923394 172.942841-34.923394 59.968813 0 118.154004 11.749602 172.942841 34.923394 52.908 22.37766 100.420107 54.409191 141.215232 95.204315 40.795125 40.795125 72.826656 88.306208 95.204315 141.215232 23.172769 54.787814 34.923394 112.974028 34.923394 172.941817 0 59.968813-11.750625 118.154004-34.923394 172.942841-22.37766 52.908-54.410214 100.420107-95.204315 141.215232-40.795125 40.795125-88.307232 72.826656-141.215232 95.204315C630.154004 944.535157 571.968813 956.285782 512 956.285782zM512 112.143103c-220.482577 0-399.856897 179.375344-399.856897 399.856897 0 220.482577 179.375344 399.856897 399.856897 399.856897s399.856897-179.375344 399.856897-399.856897C911.856897 291.517423 732.481554 112.143103 512 112.143103z" p-id="2134"></path><path d="M512 805.228391c-78.323856 0-151.959947-30.501688-207.344349-85.884043-55.383378-55.383378-85.885066-129.019469-85.885066-207.344349 0-12.268418 9.945513-22.213931 22.213931-22.213931 12.268418 0 22.213931 9.945513 22.213931 22.213931 0 137.188522 111.610984 248.800529 248.799506 248.800529 137.188522 0 248.799506-111.612007 248.799506-248.800529 0-12.268418 9.945513-22.213931 22.213931-22.213931 12.268418 0 22.213931 9.945513 22.213931 22.213931 0 78.32488-30.501688 151.96097-85.884043 207.344349C663.96097 774.726703 590.32488 805.228391 512 805.228391z" p-id="2135"></path><path d="M356.748077 364.813776a43.944 86.741 0 1 0 89.936335 0 43.944 86.741 0 1 0-89.936335 0Z" p-id="2136"></path><path d="M577.314565 364.813776a43.944 86.741 0 1 0 89.936335 0 43.944 86.741 0 1 0-89.936335 0Z" p-id="2137"></path></svg>