<?xml version="1.0" standalone="no"?><!DOCTYPE svg PUBLIC "-//W3C//DTD SVG 1.1//EN" "http://www.w3.org/Graphics/SVG/1.1/DTD/svg11.dtd"><svg t="1583119798500" class="icon" viewBox="0 0 1024 1024" version="1.1" xmlns="http://www.w3.org/2000/svg" p-id="1141" width="32" height="32" xmlns:xlink="http://www.w3.org/1999/xlink"><defs><style type="text/css"></style></defs><path d="M595.394 81.842c-46.546 0-87.143 31.806-95.677 76.8 0 0-13.834 70.465-21.075 95.806-11.895 41.762-53.527 87.92-83.652 102.66-22.756 11.248-107.313 11.377-112.485 11.377h-115.07c-31.677 0-57.407 25.6-57.407 57.406v459.248c0 31.677 25.6 57.406 57.406 57.406h529.843c85.204 0 157.608-62.319 170.279-146.618l44.347-295.563c10.473-69.43-43.313-131.75-113.52-131.75H667.799s19.394-64.258 29.22-172.735c4.913-54.95-34.004-107.313-91.151-113.26a71.37 71.37 0 0 0-10.473-0.777zM339.524 885.01V424.08c37.623-2.456 64.775-7.757 80.807-15.773 42.28-20.945 96.324-78.351 113.39-138.343 7.628-26.764 20.687-92.962 22.239-100.72 3.361-17.325 19.91-30.125 39.305-30.125 1.551 0 3.103 0.13 4.654 0.259 27.281 2.844 41.891 28.703 39.952 50.941-9.05 100.46-26.893 160.97-27.152 161.358l-22.367 73.955h208.032c16.937 0 32.452 7.111 43.572 19.911 11.119 12.8 15.773 29.22 13.187 46.029l-44.218 295.563c-8.533 56.63-56.242 97.746-113.519 97.746H339.523z m-172.09 0V425.762h114.683V885.01H167.434z m0 0" p-id="1142"></path></svg>