<?xml version="1.0" standalone="no"?><!DOCTYPE svg PUBLIC "-//W3C//DTD SVG 1.1//EN" "http://www.w3.org/Graphics/SVG/1.1/DTD/svg11.dtd"><svg t="1583119876347" class="icon" viewBox="0 0 1024 1024" version="1.1" xmlns="http://www.w3.org/2000/svg" p-id="2120" xmlns:xlink="http://www.w3.org/1999/xlink" width="32" height="32"><defs><style type="text/css"></style></defs><path d="M511.943556 807.933855c-96.857237 0-194.956234-27.65737-276.235034-77.892184-41.316724-25.512512-76.763312-55.766288-105.323779-90.084004-30.47955-36.462573-52.379671-76.42465-65.023041-118.870246-1.806196-5.870136-1.806196-12.078933-0.112887-17.949068 12.643369-44.251791 34.54349-85.342741 65.02304-122.36975 28.560467-34.54349 64.119943-64.910153 105.775328-90.084004 79.811267-48.202844 177.797376-74.844229 276.009261-74.844229 98.211884 0.112887 196.197994 26.641385 276.00926 74.844229 41.655385 25.173851 77.214861 55.427627 105.775328 89.971117 30.47955 37.027009 52.379671 78.117958 65.02304 122.36975 1.693308 5.870136 1.693308 12.078933-0.112887 17.949068-12.756256 42.332709-34.54349 82.294786-65.02304 118.870246-28.673355 34.317716-64.119943 64.571492-105.323779 90.084004-81.504575 50.347701-179.603572 78.005071-276.46081 78.005071zM129.481645 511.717782c21.787234 63.555507 71.118951 121.466652 139.867269 163.912248 71.344725 44.138904 157.477676 68.409657 242.594642 68.409657s171.249917-24.270753 242.594643-68.409657c68.748319-42.445596 118.080035-100.356741 139.867269-163.912248-21.674347-66.603462-69.764304-123.950171-139.641495-166.169992-69.877191-42.332709-156.235917-65.587477-242.933304-65.587477-86.697387 0-172.943226 23.254768-242.820417 65.587477-69.764304 42.219821-117.854261 99.566531-139.528607 166.169992z" p-id="2121"></path><path d="M511.943556 671.904751c-88.277808 0-159.961195-71.796274-159.961195-159.961195 0-88.277808 71.796274-159.961195 159.961195-159.961195s159.961195 71.796274 159.961195 159.961195c0 88.277808-71.683387 159.961195-159.961195 159.961195z m0-256.028221c-52.944108 0-96.067027 43.122919-96.067026 96.067026 0 52.944108 43.122919 96.067027 96.067026 96.067027s96.067027-43.122919 96.067027-96.067027c0-52.944108-43.122919-96.067027-96.067027-96.067026z" p-id="2122"></path></svg>